<mxfile host="Electron" agent="Mozilla/5.0 (Windows NT 10.0; Win64; x64) AppleWebKit/537.36 (KHTML, like Gecko) draw.io/26.0.16 Chrome/132.0.6834.196 Electron/34.2.0 Safari/537.36" version="26.0.16">
  <diagram name="Sayfa -1" id="dwgvow1x379nMcoGAdWA">
    <mxGraphModel dx="1594" dy="932" grid="1" gridSize="10" guides="1" tooltips="1" connect="1" arrows="1" fold="1" page="1" pageScale="1" pageWidth="1654" pageHeight="1169" math="0" shadow="0">
      <root>
        <mxCell id="0" />
        <mxCell id="1" parent="0" />
        <mxCell id="d3CPE8qiOkXwUsFsDZQ1-61" style="edgeStyle=orthogonalEdgeStyle;rounded=0;orthogonalLoop=1;jettySize=auto;html=1;exitX=0;exitY=1;exitDx=0;exitDy=0;entryX=1;entryY=0.5;entryDx=0;entryDy=0;" edge="1" parent="1" source="d3CPE8qiOkXwUsFsDZQ1-1" target="d3CPE8qiOkXwUsFsDZQ1-3">
          <mxGeometry relative="1" as="geometry" />
        </mxCell>
        <mxCell id="d3CPE8qiOkXwUsFsDZQ1-1" value="şirket" style="whiteSpace=wrap;html=1;align=center;" vertex="1" parent="1">
          <mxGeometry x="777" y="50" width="100" height="40" as="geometry" />
        </mxCell>
        <mxCell id="d3CPE8qiOkXwUsFsDZQ1-64" style="edgeStyle=orthogonalEdgeStyle;rounded=0;orthogonalLoop=1;jettySize=auto;html=1;exitX=0.5;exitY=0;exitDx=0;exitDy=0;entryX=0.5;entryY=1;entryDx=0;entryDy=0;" edge="1" parent="1" source="d3CPE8qiOkXwUsFsDZQ1-2">
          <mxGeometry relative="1" as="geometry">
            <mxPoint x="1190" y="50" as="targetPoint" />
          </mxGeometry>
        </mxCell>
        <mxCell id="d3CPE8qiOkXwUsFsDZQ1-65" style="edgeStyle=orthogonalEdgeStyle;rounded=0;orthogonalLoop=1;jettySize=auto;html=1;exitX=1;exitY=0;exitDx=0;exitDy=0;entryX=0;entryY=1;entryDx=0;entryDy=0;" edge="1" parent="1" source="d3CPE8qiOkXwUsFsDZQ1-2" target="d3CPE8qiOkXwUsFsDZQ1-8">
          <mxGeometry relative="1" as="geometry" />
        </mxCell>
        <mxCell id="d3CPE8qiOkXwUsFsDZQ1-66" style="edgeStyle=orthogonalEdgeStyle;rounded=0;orthogonalLoop=1;jettySize=auto;html=1;exitX=1;exitY=1;exitDx=0;exitDy=0;" edge="1" parent="1" source="d3CPE8qiOkXwUsFsDZQ1-2" target="d3CPE8qiOkXwUsFsDZQ1-13">
          <mxGeometry relative="1" as="geometry" />
        </mxCell>
        <mxCell id="d3CPE8qiOkXwUsFsDZQ1-69" style="edgeStyle=orthogonalEdgeStyle;rounded=0;orthogonalLoop=1;jettySize=auto;html=1;exitX=0;exitY=1;exitDx=0;exitDy=0;" edge="1" parent="1" source="d3CPE8qiOkXwUsFsDZQ1-2" target="d3CPE8qiOkXwUsFsDZQ1-17">
          <mxGeometry relative="1" as="geometry" />
        </mxCell>
        <mxCell id="d3CPE8qiOkXwUsFsDZQ1-70" style="edgeStyle=orthogonalEdgeStyle;rounded=0;orthogonalLoop=1;jettySize=auto;html=1;exitX=0.5;exitY=1;exitDx=0;exitDy=0;" edge="1" parent="1" source="d3CPE8qiOkXwUsFsDZQ1-2" target="d3CPE8qiOkXwUsFsDZQ1-16">
          <mxGeometry relative="1" as="geometry" />
        </mxCell>
        <mxCell id="d3CPE8qiOkXwUsFsDZQ1-2" value="şube 2" style="ellipse;whiteSpace=wrap;html=1;align=center;" vertex="1" parent="1">
          <mxGeometry x="1070" y="140" width="100" height="40" as="geometry" />
        </mxCell>
        <mxCell id="d3CPE8qiOkXwUsFsDZQ1-56" style="edgeStyle=orthogonalEdgeStyle;rounded=0;orthogonalLoop=1;jettySize=auto;html=1;exitX=0.5;exitY=0;exitDx=0;exitDy=0;" edge="1" parent="1" source="d3CPE8qiOkXwUsFsDZQ1-3" target="d3CPE8qiOkXwUsFsDZQ1-10">
          <mxGeometry relative="1" as="geometry" />
        </mxCell>
        <mxCell id="d3CPE8qiOkXwUsFsDZQ1-57" style="edgeStyle=orthogonalEdgeStyle;rounded=0;orthogonalLoop=1;jettySize=auto;html=1;exitX=0;exitY=0;exitDx=0;exitDy=0;entryX=1;entryY=1;entryDx=0;entryDy=0;" edge="1" parent="1" source="d3CPE8qiOkXwUsFsDZQ1-3" target="d3CPE8qiOkXwUsFsDZQ1-9">
          <mxGeometry relative="1" as="geometry" />
        </mxCell>
        <mxCell id="d3CPE8qiOkXwUsFsDZQ1-58" style="edgeStyle=orthogonalEdgeStyle;rounded=0;orthogonalLoop=1;jettySize=auto;html=1;exitX=0;exitY=1;exitDx=0;exitDy=0;entryX=1;entryY=0;entryDx=0;entryDy=0;" edge="1" parent="1" source="d3CPE8qiOkXwUsFsDZQ1-3" target="d3CPE8qiOkXwUsFsDZQ1-12">
          <mxGeometry relative="1" as="geometry">
            <Array as="points">
              <mxPoint x="350" y="204" />
              <mxPoint x="350" y="156" />
            </Array>
          </mxGeometry>
        </mxCell>
        <mxCell id="d3CPE8qiOkXwUsFsDZQ1-67" style="edgeStyle=orthogonalEdgeStyle;rounded=0;orthogonalLoop=1;jettySize=auto;html=1;exitX=0.5;exitY=1;exitDx=0;exitDy=0;" edge="1" parent="1" source="d3CPE8qiOkXwUsFsDZQ1-3">
          <mxGeometry relative="1" as="geometry">
            <mxPoint x="489.9999999999998" y="220" as="sourcePoint" />
            <mxPoint x="259.94117647058806" y="350.035294117647" as="targetPoint" />
          </mxGeometry>
        </mxCell>
        <mxCell id="d3CPE8qiOkXwUsFsDZQ1-68" style="edgeStyle=orthogonalEdgeStyle;rounded=0;orthogonalLoop=1;jettySize=auto;html=1;exitX=1;exitY=1;exitDx=0;exitDy=0;" edge="1" parent="1" source="d3CPE8qiOkXwUsFsDZQ1-3" target="d3CPE8qiOkXwUsFsDZQ1-18">
          <mxGeometry relative="1" as="geometry" />
        </mxCell>
        <mxCell id="d3CPE8qiOkXwUsFsDZQ1-3" value="şube 1" style="ellipse;whiteSpace=wrap;html=1;align=center;" vertex="1" parent="1">
          <mxGeometry x="440" y="170" width="100" height="40" as="geometry" />
        </mxCell>
        <mxCell id="d3CPE8qiOkXwUsFsDZQ1-8" value="yamaha" style="ellipse;whiteSpace=wrap;html=1;align=center;" vertex="1" parent="1">
          <mxGeometry x="1300" y="70" width="100" height="40" as="geometry" />
        </mxCell>
        <mxCell id="d3CPE8qiOkXwUsFsDZQ1-9" value="kawasaki" style="ellipse;whiteSpace=wrap;html=1;align=center;" vertex="1" parent="1">
          <mxGeometry x="280" y="70" width="100" height="40" as="geometry" />
        </mxCell>
        <mxCell id="d3CPE8qiOkXwUsFsDZQ1-10" value="119" style="ellipse;whiteSpace=wrap;html=1;align=center;fontStyle=4;" vertex="1" parent="1">
          <mxGeometry x="380" y="10" width="100" height="40" as="geometry" />
        </mxCell>
        <mxCell id="d3CPE8qiOkXwUsFsDZQ1-12" value="battalgazi" style="ellipse;whiteSpace=wrap;html=1;align=center;" vertex="1" parent="1">
          <mxGeometry x="210" y="150" width="100" height="40" as="geometry" />
        </mxCell>
        <mxCell id="d3CPE8qiOkXwUsFsDZQ1-13" value="yeşilyurt" style="ellipse;whiteSpace=wrap;html=1;align=center;" vertex="1" parent="1">
          <mxGeometry x="1310" y="170" width="100" height="40" as="geometry" />
        </mxCell>
        <mxCell id="d3CPE8qiOkXwUsFsDZQ1-96" style="edgeStyle=orthogonalEdgeStyle;rounded=0;orthogonalLoop=1;jettySize=auto;html=1;exitX=0.5;exitY=1;exitDx=0;exitDy=0;" edge="1" parent="1" source="d3CPE8qiOkXwUsFsDZQ1-16" target="d3CPE8qiOkXwUsFsDZQ1-21">
          <mxGeometry relative="1" as="geometry" />
        </mxCell>
        <mxCell id="d3CPE8qiOkXwUsFsDZQ1-16" value="çalışır" style="shape=rhombus;perimeter=rhombusPerimeter;whiteSpace=wrap;html=1;align=center;" vertex="1" parent="1">
          <mxGeometry x="1340" y="340" width="100" height="60" as="geometry" />
        </mxCell>
        <mxCell id="d3CPE8qiOkXwUsFsDZQ1-88" style="edgeStyle=orthogonalEdgeStyle;rounded=0;orthogonalLoop=1;jettySize=auto;html=1;exitX=0.5;exitY=1;exitDx=0;exitDy=0;" edge="1" parent="1" source="d3CPE8qiOkXwUsFsDZQ1-17" target="d3CPE8qiOkXwUsFsDZQ1-22">
          <mxGeometry relative="1" as="geometry" />
        </mxCell>
        <mxCell id="d3CPE8qiOkXwUsFsDZQ1-17" value="çalışır" style="shape=rhombus;perimeter=rhombusPerimeter;whiteSpace=wrap;html=1;align=center;" vertex="1" parent="1">
          <mxGeometry x="950" y="340" width="100" height="60" as="geometry" />
        </mxCell>
        <mxCell id="d3CPE8qiOkXwUsFsDZQ1-80" style="edgeStyle=orthogonalEdgeStyle;rounded=0;orthogonalLoop=1;jettySize=auto;html=1;exitX=0.5;exitY=1;exitDx=0;exitDy=0;entryX=0.5;entryY=0;entryDx=0;entryDy=0;" edge="1" parent="1" source="d3CPE8qiOkXwUsFsDZQ1-18" target="d3CPE8qiOkXwUsFsDZQ1-23">
          <mxGeometry relative="1" as="geometry" />
        </mxCell>
        <mxCell id="d3CPE8qiOkXwUsFsDZQ1-18" value="çalışır" style="shape=rhombus;perimeter=rhombusPerimeter;whiteSpace=wrap;html=1;align=center;" vertex="1" parent="1">
          <mxGeometry x="570" y="340" width="100" height="60" as="geometry" />
        </mxCell>
        <mxCell id="d3CPE8qiOkXwUsFsDZQ1-71" style="edgeStyle=orthogonalEdgeStyle;rounded=0;orthogonalLoop=1;jettySize=auto;html=1;exitX=0.5;exitY=1;exitDx=0;exitDy=0;" edge="1" parent="1" source="d3CPE8qiOkXwUsFsDZQ1-19" target="d3CPE8qiOkXwUsFsDZQ1-24">
          <mxGeometry relative="1" as="geometry" />
        </mxCell>
        <mxCell id="d3CPE8qiOkXwUsFsDZQ1-19" value="çalışır" style="shape=rhombus;perimeter=rhombusPerimeter;whiteSpace=wrap;html=1;align=center;" vertex="1" parent="1">
          <mxGeometry x="210" y="340" width="100" height="60" as="geometry" />
        </mxCell>
        <mxCell id="d3CPE8qiOkXwUsFsDZQ1-97" style="edgeStyle=orthogonalEdgeStyle;rounded=0;orthogonalLoop=1;jettySize=auto;html=1;exitX=0;exitY=0;exitDx=0;exitDy=0;" edge="1" parent="1" source="d3CPE8qiOkXwUsFsDZQ1-21" target="d3CPE8qiOkXwUsFsDZQ1-30">
          <mxGeometry relative="1" as="geometry" />
        </mxCell>
        <mxCell id="d3CPE8qiOkXwUsFsDZQ1-98" style="edgeStyle=orthogonalEdgeStyle;rounded=0;orthogonalLoop=1;jettySize=auto;html=1;exitX=0;exitY=0.5;exitDx=0;exitDy=0;entryX=1;entryY=0.5;entryDx=0;entryDy=0;" edge="1" parent="1" source="d3CPE8qiOkXwUsFsDZQ1-21" target="d3CPE8qiOkXwUsFsDZQ1-29">
          <mxGeometry relative="1" as="geometry" />
        </mxCell>
        <mxCell id="d3CPE8qiOkXwUsFsDZQ1-99" style="edgeStyle=orthogonalEdgeStyle;rounded=0;orthogonalLoop=1;jettySize=auto;html=1;exitX=0;exitY=1;exitDx=0;exitDy=0;" edge="1" parent="1" source="d3CPE8qiOkXwUsFsDZQ1-21">
          <mxGeometry relative="1" as="geometry">
            <mxPoint x="1340.3333333333335" y="590" as="targetPoint" />
          </mxGeometry>
        </mxCell>
        <mxCell id="d3CPE8qiOkXwUsFsDZQ1-100" style="edgeStyle=orthogonalEdgeStyle;rounded=0;orthogonalLoop=1;jettySize=auto;html=1;exitX=0.5;exitY=1;exitDx=0;exitDy=0;" edge="1" parent="1" source="d3CPE8qiOkXwUsFsDZQ1-21" target="d3CPE8qiOkXwUsFsDZQ1-49">
          <mxGeometry relative="1" as="geometry" />
        </mxCell>
        <mxCell id="d3CPE8qiOkXwUsFsDZQ1-102" style="edgeStyle=orthogonalEdgeStyle;rounded=0;orthogonalLoop=1;jettySize=auto;html=1;exitX=1;exitY=0.5;exitDx=0;exitDy=0;entryX=0;entryY=0.5;entryDx=0;entryDy=0;" edge="1" parent="1" source="d3CPE8qiOkXwUsFsDZQ1-21" target="d3CPE8qiOkXwUsFsDZQ1-26">
          <mxGeometry relative="1" as="geometry" />
        </mxCell>
        <mxCell id="d3CPE8qiOkXwUsFsDZQ1-103" style="edgeStyle=orthogonalEdgeStyle;rounded=0;orthogonalLoop=1;jettySize=auto;html=1;exitX=1;exitY=0;exitDx=0;exitDy=0;entryX=0;entryY=0.5;entryDx=0;entryDy=0;" edge="1" parent="1" source="d3CPE8qiOkXwUsFsDZQ1-21" target="d3CPE8qiOkXwUsFsDZQ1-27">
          <mxGeometry relative="1" as="geometry" />
        </mxCell>
        <mxCell id="d3CPE8qiOkXwUsFsDZQ1-21" value="çalışan" style="whiteSpace=wrap;html=1;align=center;" vertex="1" parent="1">
          <mxGeometry x="1340" y="510" width="100" height="40" as="geometry" />
        </mxCell>
        <mxCell id="d3CPE8qiOkXwUsFsDZQ1-89" style="edgeStyle=orthogonalEdgeStyle;rounded=0;orthogonalLoop=1;jettySize=auto;html=1;exitX=0.25;exitY=0;exitDx=0;exitDy=0;entryX=1;entryY=0.5;entryDx=0;entryDy=0;" edge="1" parent="1" source="d3CPE8qiOkXwUsFsDZQ1-22" target="d3CPE8qiOkXwUsFsDZQ1-36">
          <mxGeometry relative="1" as="geometry" />
        </mxCell>
        <mxCell id="d3CPE8qiOkXwUsFsDZQ1-90" style="edgeStyle=orthogonalEdgeStyle;rounded=0;orthogonalLoop=1;jettySize=auto;html=1;exitX=0;exitY=0.5;exitDx=0;exitDy=0;entryX=1;entryY=0.5;entryDx=0;entryDy=0;" edge="1" parent="1" source="d3CPE8qiOkXwUsFsDZQ1-22" target="d3CPE8qiOkXwUsFsDZQ1-35">
          <mxGeometry relative="1" as="geometry" />
        </mxCell>
        <mxCell id="d3CPE8qiOkXwUsFsDZQ1-91" style="edgeStyle=orthogonalEdgeStyle;rounded=0;orthogonalLoop=1;jettySize=auto;html=1;exitX=0;exitY=1;exitDx=0;exitDy=0;entryX=1;entryY=0;entryDx=0;entryDy=0;" edge="1" parent="1" source="d3CPE8qiOkXwUsFsDZQ1-22" target="d3CPE8qiOkXwUsFsDZQ1-34">
          <mxGeometry relative="1" as="geometry" />
        </mxCell>
        <mxCell id="d3CPE8qiOkXwUsFsDZQ1-92" style="edgeStyle=orthogonalEdgeStyle;rounded=0;orthogonalLoop=1;jettySize=auto;html=1;exitX=0.5;exitY=1;exitDx=0;exitDy=0;" edge="1" parent="1" source="d3CPE8qiOkXwUsFsDZQ1-22" target="d3CPE8qiOkXwUsFsDZQ1-50">
          <mxGeometry relative="1" as="geometry" />
        </mxCell>
        <mxCell id="d3CPE8qiOkXwUsFsDZQ1-93" style="edgeStyle=orthogonalEdgeStyle;rounded=0;orthogonalLoop=1;jettySize=auto;html=1;exitX=1;exitY=1;exitDx=0;exitDy=0;entryX=0;entryY=0;entryDx=0;entryDy=0;" edge="1" parent="1" source="d3CPE8qiOkXwUsFsDZQ1-22" target="d3CPE8qiOkXwUsFsDZQ1-31">
          <mxGeometry relative="1" as="geometry" />
        </mxCell>
        <mxCell id="d3CPE8qiOkXwUsFsDZQ1-94" style="edgeStyle=orthogonalEdgeStyle;rounded=0;orthogonalLoop=1;jettySize=auto;html=1;exitX=1;exitY=0.5;exitDx=0;exitDy=0;entryX=0;entryY=0.5;entryDx=0;entryDy=0;" edge="1" parent="1" source="d3CPE8qiOkXwUsFsDZQ1-22" target="d3CPE8qiOkXwUsFsDZQ1-32">
          <mxGeometry relative="1" as="geometry" />
        </mxCell>
        <mxCell id="d3CPE8qiOkXwUsFsDZQ1-95" style="edgeStyle=orthogonalEdgeStyle;rounded=0;orthogonalLoop=1;jettySize=auto;html=1;exitX=1;exitY=0;exitDx=0;exitDy=0;entryX=0;entryY=1;entryDx=0;entryDy=0;" edge="1" parent="1" source="d3CPE8qiOkXwUsFsDZQ1-22" target="d3CPE8qiOkXwUsFsDZQ1-33">
          <mxGeometry relative="1" as="geometry" />
        </mxCell>
        <mxCell id="d3CPE8qiOkXwUsFsDZQ1-22" value="çalışan" style="whiteSpace=wrap;html=1;align=center;" vertex="1" parent="1">
          <mxGeometry x="950" y="510" width="100" height="40" as="geometry" />
        </mxCell>
        <mxCell id="d3CPE8qiOkXwUsFsDZQ1-81" style="edgeStyle=orthogonalEdgeStyle;rounded=0;orthogonalLoop=1;jettySize=auto;html=1;exitX=0.5;exitY=1;exitDx=0;exitDy=0;entryX=0.5;entryY=0;entryDx=0;entryDy=0;" edge="1" parent="1" source="d3CPE8qiOkXwUsFsDZQ1-23" target="d3CPE8qiOkXwUsFsDZQ1-51">
          <mxGeometry relative="1" as="geometry" />
        </mxCell>
        <mxCell id="d3CPE8qiOkXwUsFsDZQ1-83" style="edgeStyle=orthogonalEdgeStyle;rounded=0;orthogonalLoop=1;jettySize=auto;html=1;exitX=0;exitY=0.5;exitDx=0;exitDy=0;entryX=1;entryY=0;entryDx=0;entryDy=0;" edge="1" parent="1" source="d3CPE8qiOkXwUsFsDZQ1-23" target="d3CPE8qiOkXwUsFsDZQ1-41">
          <mxGeometry relative="1" as="geometry" />
        </mxCell>
        <mxCell id="d3CPE8qiOkXwUsFsDZQ1-84" style="edgeStyle=orthogonalEdgeStyle;rounded=0;orthogonalLoop=1;jettySize=auto;html=1;exitX=0.25;exitY=0;exitDx=0;exitDy=0;entryX=1;entryY=0.5;entryDx=0;entryDy=0;" edge="1" parent="1" source="d3CPE8qiOkXwUsFsDZQ1-23" target="d3CPE8qiOkXwUsFsDZQ1-42">
          <mxGeometry relative="1" as="geometry" />
        </mxCell>
        <mxCell id="d3CPE8qiOkXwUsFsDZQ1-85" style="edgeStyle=orthogonalEdgeStyle;rounded=0;orthogonalLoop=1;jettySize=auto;html=1;exitX=0.75;exitY=0;exitDx=0;exitDy=0;entryX=0;entryY=0.5;entryDx=0;entryDy=0;" edge="1" parent="1" source="d3CPE8qiOkXwUsFsDZQ1-23" target="d3CPE8qiOkXwUsFsDZQ1-39">
          <mxGeometry relative="1" as="geometry" />
        </mxCell>
        <mxCell id="d3CPE8qiOkXwUsFsDZQ1-86" style="edgeStyle=orthogonalEdgeStyle;rounded=0;orthogonalLoop=1;jettySize=auto;html=1;exitX=1;exitY=0.5;exitDx=0;exitDy=0;" edge="1" parent="1" source="d3CPE8qiOkXwUsFsDZQ1-23" target="d3CPE8qiOkXwUsFsDZQ1-38">
          <mxGeometry relative="1" as="geometry" />
        </mxCell>
        <mxCell id="d3CPE8qiOkXwUsFsDZQ1-23" value="çalışan" style="whiteSpace=wrap;html=1;align=center;" vertex="1" parent="1">
          <mxGeometry x="570" y="510" width="100" height="40" as="geometry" />
        </mxCell>
        <mxCell id="d3CPE8qiOkXwUsFsDZQ1-72" style="edgeStyle=orthogonalEdgeStyle;rounded=0;orthogonalLoop=1;jettySize=auto;html=1;exitX=0;exitY=0;exitDx=0;exitDy=0;" edge="1" parent="1" source="d3CPE8qiOkXwUsFsDZQ1-24" target="d3CPE8qiOkXwUsFsDZQ1-48">
          <mxGeometry relative="1" as="geometry" />
        </mxCell>
        <mxCell id="d3CPE8qiOkXwUsFsDZQ1-73" style="edgeStyle=orthogonalEdgeStyle;rounded=0;orthogonalLoop=1;jettySize=auto;html=1;exitX=0;exitY=0.5;exitDx=0;exitDy=0;" edge="1" parent="1" source="d3CPE8qiOkXwUsFsDZQ1-24" target="d3CPE8qiOkXwUsFsDZQ1-47">
          <mxGeometry relative="1" as="geometry" />
        </mxCell>
        <mxCell id="d3CPE8qiOkXwUsFsDZQ1-74" style="edgeStyle=orthogonalEdgeStyle;rounded=0;orthogonalLoop=1;jettySize=auto;html=1;exitX=0;exitY=1;exitDx=0;exitDy=0;entryX=1;entryY=0;entryDx=0;entryDy=0;" edge="1" parent="1" source="d3CPE8qiOkXwUsFsDZQ1-24" target="d3CPE8qiOkXwUsFsDZQ1-46">
          <mxGeometry relative="1" as="geometry" />
        </mxCell>
        <mxCell id="d3CPE8qiOkXwUsFsDZQ1-76" style="edgeStyle=orthogonalEdgeStyle;rounded=0;orthogonalLoop=1;jettySize=auto;html=1;exitX=0.5;exitY=1;exitDx=0;exitDy=0;" edge="1" parent="1" source="d3CPE8qiOkXwUsFsDZQ1-24" target="d3CPE8qiOkXwUsFsDZQ1-52">
          <mxGeometry relative="1" as="geometry" />
        </mxCell>
        <mxCell id="d3CPE8qiOkXwUsFsDZQ1-77" style="edgeStyle=orthogonalEdgeStyle;rounded=0;orthogonalLoop=1;jettySize=auto;html=1;exitX=0.75;exitY=1;exitDx=0;exitDy=0;entryX=0;entryY=0;entryDx=0;entryDy=0;" edge="1" parent="1" source="d3CPE8qiOkXwUsFsDZQ1-24" target="d3CPE8qiOkXwUsFsDZQ1-43">
          <mxGeometry relative="1" as="geometry" />
        </mxCell>
        <mxCell id="d3CPE8qiOkXwUsFsDZQ1-78" style="edgeStyle=orthogonalEdgeStyle;rounded=0;orthogonalLoop=1;jettySize=auto;html=1;exitX=1;exitY=0.5;exitDx=0;exitDy=0;entryX=0;entryY=0.5;entryDx=0;entryDy=0;" edge="1" parent="1" source="d3CPE8qiOkXwUsFsDZQ1-24" target="d3CPE8qiOkXwUsFsDZQ1-44">
          <mxGeometry relative="1" as="geometry" />
        </mxCell>
        <mxCell id="d3CPE8qiOkXwUsFsDZQ1-79" style="edgeStyle=orthogonalEdgeStyle;rounded=0;orthogonalLoop=1;jettySize=auto;html=1;exitX=1;exitY=0;exitDx=0;exitDy=0;entryX=0;entryY=1;entryDx=0;entryDy=0;" edge="1" parent="1" source="d3CPE8qiOkXwUsFsDZQ1-24" target="d3CPE8qiOkXwUsFsDZQ1-45">
          <mxGeometry relative="1" as="geometry" />
        </mxCell>
        <mxCell id="d3CPE8qiOkXwUsFsDZQ1-24" value="çalışan" style="whiteSpace=wrap;html=1;align=center;" vertex="1" parent="1">
          <mxGeometry x="200" y="490" width="100" height="40" as="geometry" />
        </mxCell>
        <mxCell id="d3CPE8qiOkXwUsFsDZQ1-25" value="05448654723" style="ellipse;whiteSpace=wrap;html=1;align=center;" vertex="1" parent="1">
          <mxGeometry x="1450" y="570" width="100" height="40" as="geometry" />
        </mxCell>
        <mxCell id="d3CPE8qiOkXwUsFsDZQ1-26" value="darende" style="ellipse;whiteSpace=wrap;html=1;align=center;" vertex="1" parent="1">
          <mxGeometry x="1460" y="510" width="100" height="40" as="geometry" />
        </mxCell>
        <mxCell id="d3CPE8qiOkXwUsFsDZQ1-27" value="yönetici" style="ellipse;whiteSpace=wrap;html=1;align=center;" vertex="1" parent="1">
          <mxGeometry x="1440" y="460" width="100" height="40" as="geometry" />
        </mxCell>
        <mxCell id="d3CPE8qiOkXwUsFsDZQ1-28" value="100.000" style="ellipse;whiteSpace=wrap;html=1;align=center;" vertex="1" parent="1">
          <mxGeometry x="1240" y="580" width="100" height="40" as="geometry" />
        </mxCell>
        <mxCell id="d3CPE8qiOkXwUsFsDZQ1-29" value="ekmekçi" style="ellipse;whiteSpace=wrap;html=1;align=center;" vertex="1" parent="1">
          <mxGeometry x="1210" y="530" width="100" height="40" as="geometry" />
        </mxCell>
        <mxCell id="d3CPE8qiOkXwUsFsDZQ1-30" value="melisa" style="ellipse;whiteSpace=wrap;html=1;align=center;" vertex="1" parent="1">
          <mxGeometry x="1230" y="470" width="100" height="40" as="geometry" />
        </mxCell>
        <mxCell id="d3CPE8qiOkXwUsFsDZQ1-31" value="05448753654" style="ellipse;whiteSpace=wrap;html=1;align=center;" vertex="1" parent="1">
          <mxGeometry x="1050" y="570" width="100" height="40" as="geometry" />
        </mxCell>
        <mxCell id="d3CPE8qiOkXwUsFsDZQ1-32" value="kernek" style="ellipse;whiteSpace=wrap;html=1;align=center;" vertex="1" parent="1">
          <mxGeometry x="1070" y="510" width="100" height="40" as="geometry" />
        </mxCell>
        <mxCell id="d3CPE8qiOkXwUsFsDZQ1-33" value="personel" style="ellipse;whiteSpace=wrap;html=1;align=center;" vertex="1" parent="1">
          <mxGeometry x="1040" y="460" width="100" height="40" as="geometry" />
        </mxCell>
        <mxCell id="d3CPE8qiOkXwUsFsDZQ1-34" value="20.000" style="ellipse;whiteSpace=wrap;html=1;align=center;" vertex="1" parent="1">
          <mxGeometry x="850" y="570" width="100" height="40" as="geometry" />
        </mxCell>
        <mxCell id="d3CPE8qiOkXwUsFsDZQ1-35" value="yıldırım" style="ellipse;whiteSpace=wrap;html=1;align=center;" vertex="1" parent="1">
          <mxGeometry x="830" y="510" width="100" height="40" as="geometry" />
        </mxCell>
        <mxCell id="d3CPE8qiOkXwUsFsDZQ1-36" value="ibrahim" style="ellipse;whiteSpace=wrap;html=1;align=center;" vertex="1" parent="1">
          <mxGeometry x="850" y="460" width="100" height="40" as="geometry" />
        </mxCell>
        <mxCell id="d3CPE8qiOkXwUsFsDZQ1-37" value="fahri kayhan" style="ellipse;whiteSpace=wrap;html=1;align=center;" vertex="1" parent="1">
          <mxGeometry x="677" y="570" width="100" height="40" as="geometry" />
        </mxCell>
        <mxCell id="d3CPE8qiOkXwUsFsDZQ1-38" value="müdür yardımcısı" style="ellipse;whiteSpace=wrap;html=1;align=center;" vertex="1" parent="1">
          <mxGeometry x="700" y="520" width="100" height="40" as="geometry" />
        </mxCell>
        <mxCell id="d3CPE8qiOkXwUsFsDZQ1-39" value="25.000" style="ellipse;whiteSpace=wrap;html=1;align=center;" vertex="1" parent="1">
          <mxGeometry x="670" y="460" width="100" height="40" as="geometry" />
        </mxCell>
        <mxCell id="d3CPE8qiOkXwUsFsDZQ1-40" value="05447895625" style="ellipse;whiteSpace=wrap;html=1;align=center;" vertex="1" parent="1">
          <mxGeometry x="470" y="580" width="100" height="40" as="geometry" />
        </mxCell>
        <mxCell id="d3CPE8qiOkXwUsFsDZQ1-41" value="arsaln" style="ellipse;whiteSpace=wrap;html=1;align=center;" vertex="1" parent="1">
          <mxGeometry x="450" y="520" width="100" height="40" as="geometry" />
        </mxCell>
        <mxCell id="d3CPE8qiOkXwUsFsDZQ1-42" value="sinem&amp;nbsp;" style="ellipse;whiteSpace=wrap;html=1;align=center;" vertex="1" parent="1">
          <mxGeometry x="470" y="460" width="100" height="40" as="geometry" />
        </mxCell>
        <mxCell id="d3CPE8qiOkXwUsFsDZQ1-43" value="yeşiltepe" style="ellipse;whiteSpace=wrap;html=1;align=center;" vertex="1" parent="1">
          <mxGeometry x="300" y="560" width="100" height="40" as="geometry" />
        </mxCell>
        <mxCell id="d3CPE8qiOkXwUsFsDZQ1-44" value="yönetici" style="ellipse;whiteSpace=wrap;html=1;align=center;" vertex="1" parent="1">
          <mxGeometry x="330" y="500" width="100" height="40" as="geometry" />
        </mxCell>
        <mxCell id="d3CPE8qiOkXwUsFsDZQ1-45" value="50.000" style="ellipse;whiteSpace=wrap;html=1;align=center;" vertex="1" parent="1">
          <mxGeometry x="310" y="450" width="100" height="40" as="geometry" />
        </mxCell>
        <mxCell id="d3CPE8qiOkXwUsFsDZQ1-46" value="05443135585" style="ellipse;whiteSpace=wrap;html=1;align=center;" vertex="1" parent="1">
          <mxGeometry x="80" y="560" width="100" height="40" as="geometry" />
        </mxCell>
        <mxCell id="d3CPE8qiOkXwUsFsDZQ1-47" value="yıldız" style="ellipse;whiteSpace=wrap;html=1;align=center;" vertex="1" parent="1">
          <mxGeometry x="70" y="500" width="100" height="40" as="geometry" />
        </mxCell>
        <mxCell id="d3CPE8qiOkXwUsFsDZQ1-48" value="ahmet" style="ellipse;whiteSpace=wrap;html=1;align=center;" vertex="1" parent="1">
          <mxGeometry x="90" y="450" width="100" height="40" as="geometry" />
        </mxCell>
        <mxCell id="d3CPE8qiOkXwUsFsDZQ1-49" value="68647512500" style="ellipse;whiteSpace=wrap;html=1;align=center;fontStyle=4;" vertex="1" parent="1">
          <mxGeometry x="1350" y="600" width="100" height="40" as="geometry" />
        </mxCell>
        <mxCell id="d3CPE8qiOkXwUsFsDZQ1-50" value="65498712355" style="ellipse;whiteSpace=wrap;html=1;align=center;fontStyle=4;" vertex="1" parent="1">
          <mxGeometry x="950" y="600" width="100" height="40" as="geometry" />
        </mxCell>
        <mxCell id="d3CPE8qiOkXwUsFsDZQ1-51" value="48532178956" style="ellipse;whiteSpace=wrap;html=1;align=center;fontStyle=4;" vertex="1" parent="1">
          <mxGeometry x="577" y="600" width="100" height="40" as="geometry" />
        </mxCell>
        <mxCell id="d3CPE8qiOkXwUsFsDZQ1-52" value="10856987444" style="ellipse;whiteSpace=wrap;html=1;align=center;fontStyle=4;" vertex="1" parent="1">
          <mxGeometry x="190" y="580" width="100" height="40" as="geometry" />
        </mxCell>
        <mxCell id="d3CPE8qiOkXwUsFsDZQ1-63" style="edgeStyle=orthogonalEdgeStyle;rounded=0;orthogonalLoop=1;jettySize=auto;html=1;exitX=1;exitY=1;exitDx=0;exitDy=0;entryX=0;entryY=0.5;entryDx=0;entryDy=0;" edge="1" parent="1" source="d3CPE8qiOkXwUsFsDZQ1-1" target="d3CPE8qiOkXwUsFsDZQ1-2">
          <mxGeometry relative="1" as="geometry" />
        </mxCell>
        <mxCell id="d3CPE8qiOkXwUsFsDZQ1-82" style="edgeStyle=orthogonalEdgeStyle;rounded=0;orthogonalLoop=1;jettySize=auto;html=1;exitX=0;exitY=1;exitDx=0;exitDy=0;entryX=0.946;entryY=0.187;entryDx=0;entryDy=0;entryPerimeter=0;" edge="1" parent="1" source="d3CPE8qiOkXwUsFsDZQ1-23" target="d3CPE8qiOkXwUsFsDZQ1-40">
          <mxGeometry relative="1" as="geometry" />
        </mxCell>
        <mxCell id="d3CPE8qiOkXwUsFsDZQ1-87" style="edgeStyle=orthogonalEdgeStyle;rounded=0;orthogonalLoop=1;jettySize=auto;html=1;exitX=1;exitY=1;exitDx=0;exitDy=0;entryX=0.03;entryY=0.25;entryDx=0;entryDy=0;entryPerimeter=0;" edge="1" parent="1" source="d3CPE8qiOkXwUsFsDZQ1-23" target="d3CPE8qiOkXwUsFsDZQ1-37">
          <mxGeometry relative="1" as="geometry" />
        </mxCell>
        <mxCell id="d3CPE8qiOkXwUsFsDZQ1-101" style="edgeStyle=orthogonalEdgeStyle;rounded=0;orthogonalLoop=1;jettySize=auto;html=1;exitX=1;exitY=1;exitDx=0;exitDy=0;entryX=0.053;entryY=0.197;entryDx=0;entryDy=0;entryPerimeter=0;" edge="1" parent="1" source="d3CPE8qiOkXwUsFsDZQ1-21" target="d3CPE8qiOkXwUsFsDZQ1-25">
          <mxGeometry relative="1" as="geometry" />
        </mxCell>
        <mxCell id="d3CPE8qiOkXwUsFsDZQ1-105" value="120" style="ellipse;whiteSpace=wrap;html=1;align=center;fontStyle=4;" vertex="1" parent="1">
          <mxGeometry x="1140" y="10" width="100" height="40" as="geometry" />
        </mxCell>
      </root>
    </mxGraphModel>
  </diagram>
</mxfile>
